<?xml version="1.0" encoding="UTF-8" standalone="no"?>
<!-- Created with Inkscape (http://www.inkscape.org/) -->

<svg
   xmlns:dc="http://purl.org/dc/elements/1.1/"
   xmlns:cc="http://creativecommons.org/ns#"
   xmlns:rdf="http://www.w3.org/1999/02/22-rdf-syntax-ns#"
   xmlns:svg="http://www.w3.org/2000/svg"
   xmlns="http://www.w3.org/2000/svg"
   xmlns:sodipodi="http://sodipodi.sourceforge.net/DTD/sodipodi-0.dtd"
   xmlns:inkscape="http://www.inkscape.org/namespaces/inkscape"
   width="852.46832mm"
   height="142.34584mm"
   viewBox="0 0 852.46832 142.34584"
   version="1.1"
   id="svg1032"
   inkscape:version="0.92.4 (5da689c313, 2019-01-14)"
   sodipodi:docname="banner.svg">
  <defs
     id="defs1026" />
  <sodipodi:namedview
     id="base"
     pagecolor="#ffffff"
     bordercolor="#666666"
     borderopacity="1.0"
     inkscape:pageopacity="0.0"
     inkscape:pageshadow="2"
     inkscape:zoom="0.35"
     inkscape:cx="1727.1429"
     inkscape:cy="37.571429"
     inkscape:document-units="mm"
     inkscape:current-layer="layer1"
     showgrid="false"
     fit-margin-top="0"
     fit-margin-left="0"
     fit-margin-right="0"
     fit-margin-bottom="0"
     inkscape:window-width="1920"
     inkscape:window-height="1017"
     inkscape:window-x="1912"
     inkscape:window-y="1072"
     inkscape:window-maximized="1" />
  <metadata
     id="metadata1029">
    <rdf:RDF>
      <cc:Work
         rdf:about="">
        <dc:format>image/svg+xml</dc:format>
        <dc:type
           rdf:resource="http://purl.org/dc/dcmitype/StillImage" />
        <dc:title></dc:title>
      </cc:Work>
    </rdf:RDF>
  </metadata>
  <g
     inkscape:label="Layer 1"
     inkscape:groupmode="layer"
     id="layer1"
     transform="translate(759.60918,123.42292)">
    <rect
       style="fill:#0277bd;fill-opacity:1;stroke-width:0.44347674"
       x="-715.26166"
       y="-7.2554188"
       width="44.347672"
       height="22.173836"
       id="rect962" />
    <rect
       style="fill:#29b6f6;fill-opacity:1;stroke-width:0.44347674"
       x="-670.91382"
       y="-7.2554188"
       width="44.347672"
       height="22.173836"
       id="rect964" />
    <rect
       style="fill:#0277bd;fill-opacity:1;stroke-width:0.44347674"
       x="-715.26166"
       y="-29.429255"
       width="44.347672"
       height="22.173836"
       id="rect966" />
    <rect
       style="fill:#29b6f6;fill-opacity:1;stroke-width:0.44347674"
       x="-759.60919"
       y="-29.429255"
       width="44.347672"
       height="22.173836"
       id="rect968" />
    <rect
       style="fill:#0277bd;fill-opacity:1;stroke-width:0.44347674"
       x="-715.26166"
       y="-51.603092"
       width="44.347672"
       height="22.173836"
       id="rect970" />
    <rect
       style="fill:#29b6f6;fill-opacity:1;stroke-width:0.44347674"
       x="-670.91382"
       y="-51.603092"
       width="44.347672"
       height="22.173836"
       id="rect972" />
    <rect
       style="fill:#0277bd;stroke-width:0.44347674"
       x="-715.26166"
       y="-73.776932"
       width="44.347672"
       height="22.173836"
       id="rect974" />
    <rect
       style="fill:#29b6f6;stroke-width:0.44347674"
       x="-759.60919"
       y="-73.776932"
       width="44.347672"
       height="22.173836"
       id="rect976" />
    <rect
       style="fill:#0277bd;fill-opacity:1;stroke-width:0.44347674"
       x="-715.26166"
       y="-95.950768"
       width="44.347672"
       height="22.173836"
       id="rect978" />
    <rect
       style="fill:#29b6f6;fill-opacity:1;stroke-width:0.44347674"
       x="-670.91382"
       y="-95.950768"
       width="44.347672"
       height="22.173836"
       id="rect980" />
    <rect
       style="fill:#0277bd;fill-opacity:1;stroke-width:0.44347674"
       x="-715.26166"
       y="-118.1246"
       width="44.347672"
       height="22.173836"
       id="rect982" />
    <rect
       style="fill:#29b6f6;fill-opacity:1;stroke-width:0.44347674"
       x="-759.60919"
       y="-118.1246"
       width="44.347672"
       height="22.173836"
       id="rect984" />
    <g
       transform="matrix(0.26562092,0,0,0.26562092,-2069.2967,-62.580788)"
       aria-label="pyVHDLModel"
       style="font-style:normal;font-weight:normal;font-size:39.84375px;line-height:1.25;font-family:sans-serif;letter-spacing:0px;word-spacing:0px;fill:#ffffff;fill-opacity:1;stroke:none;stroke-width:0.99609375"
       id="text988"
       inkscape:export-filename="C:\Users\eine\Desktop\EDAA_modules_logos.png"
       inkscape:export-xdpi="17.843866"
       inkscape:export-ydpi="17.843866">
      <path
         d="m 5658.5186,-108.86093 h 23.2421 q 60.4297,0 60.4297,59.101561 V 156.76407 q 0,58.4375 -60.4297,58.4375 h -23.2421 q -32.5391,0 -41.1719,-25.89844 v 117.53906 h -59.7656 v -415.70312 h 59.7656 v 25.898436 q 8.6328,-25.898436 41.1719,-25.898436 z m 23.9062,256.32812 V -41.126556 q 0,-11.953125 -3.9844,-15.273438 -3.9843,-3.984375 -15.9375,-3.984375 h -23.2422 q -11.9531,0 -17.2656,5.3125 -4.6484,5.3125 -4.6484,17.929688 V 143.48282 q 0,12.61719 4.6484,17.92969 5.3125,5.3125 17.2656,5.3125 h 23.2422 q 11.9532,0 15.9375,-3.32032 3.9844,-3.98437 3.9844,-15.9375 z"
         style="font-style:normal;font-variant:normal;font-weight:normal;font-stretch:normal;font-size:664.0625px;font-family:Teko;-inkscape-font-specification:Teko;fill:#29b6f6;fill-opacity:1;stroke-width:0.99609375"
         id="path1059"
         inkscape:connector-curvature="0" />
      <path
         d="m 5844.041,306.84219 h -39.8437 v -47.8125 h 27.2265 q 28.5547,0 34.5313,-21.91406 l 6.6406,-27.22656 h -32.5391 l -67.7343,-318.75 h 61.0937 l 49.1406,271.60156 45.8204,-271.60156 h 60.4296 l -68.3984,355.27344 q -14.6094,60.42968 -76.3672,60.42968 z"
         style="font-style:normal;font-variant:normal;font-weight:normal;font-stretch:normal;font-size:664.0625px;font-family:Teko;-inkscape-font-specification:Teko;fill:#29b6f6;fill-opacity:1;stroke-width:0.99609375"
         id="path1061"
         inkscape:connector-curvature="0" />
      <path
         d="m 6170.6249,-200.50156 h 61.7578 l -75.0391,415.70313 h -85 l -75.039,-415.70313 h 61.7578 l 55.1172,360.58594 z"
         style="font-style:normal;font-variant:normal;font-weight:normal;font-stretch:normal;font-size:664.0625px;font-family:Teko;-inkscape-font-specification:Teko;fill:#0277bd;fill-opacity:1;stroke-width:0.99609375"
         id="path1063"
         inkscape:connector-curvature="0" />
      <path
         d="m 6417.8429,-200.50156 h 59.7656 v 415.70313 h -59.7656 V 32.584381 h -88.3203 V 215.20157 h -59.7656 v -415.70313 h 59.7656 v 184.609379 h 88.3203 z"
         style="font-style:normal;font-variant:normal;font-weight:normal;font-stretch:normal;font-size:664.0625px;font-family:Teko;-inkscape-font-specification:Teko;fill:#0277bd;fill-opacity:1;stroke-width:0.99609375"
         id="path1065"
         inkscape:connector-curvature="0" />
      <path
         d="m 6548.6425,-200.50156 h 144.7656 q 61.7578,0 61.7578,58.4375 v 298.82813 q 0,58.4375 -61.7578,58.4375 h -144.7656 z m 146.0937,349.29688 v -282.89063 q 0,-11.95312 -3.9844,-15.27343 -3.9843,-3.98438 -15.9375,-3.98438 h -65.7422 v 321.40625 h 65.7422 q 11.9532,0 15.9375,-3.32031 3.9844,-3.98438 3.9844,-15.9375 z"
         style="font-style:normal;font-variant:normal;font-weight:normal;font-stretch:normal;font-size:664.0625px;font-family:Teko;-inkscape-font-specification:Teko;fill:#0277bd;fill-opacity:1;stroke-width:0.99609375"
         id="path1067"
         inkscape:connector-curvature="0" />
      <path
         d="m 6880.7463,166.72501 h 102.9297 v 48.47656 h -162.6953 v -415.70313 h 59.7656 z"
         style="font-style:normal;font-variant:normal;font-weight:normal;font-stretch:normal;font-size:664.0625px;font-family:Teko;-inkscape-font-specification:Teko;fill:#0277bd;fill-opacity:1;stroke-width:0.99609375"
         id="path1069"
         inkscape:connector-curvature="0" />
      <path
         d="m 7073.1792,215.20157 h -52.4609 v -415.70313 h 65.7421 l 71.0547,257.656254 71.0547,-257.656254 h 65.7422 v 415.70313 h -52.4609 V -88.939056 l -57.1094,213.828126 h -54.4531 l -57.1094,-213.164064 z"
         style="font-style:normal;font-variant:normal;font-weight:normal;font-stretch:normal;font-size:664.0625px;font-family:Teko;-inkscape-font-specification:Teko;fill:#0277bd;fill-opacity:1;stroke-width:0.99609375"
         id="path1071"
         inkscape:connector-curvature="0" />
      <path
         d="m 7415.5864,-108.86093 h 71.0547 q 61.7578,0 61.7578,59.101561 V 156.76407 q 0,58.4375 -61.7578,58.4375 h -71.0547 q -61.0937,0 -61.0937,-58.4375 V -49.759369 q 0,-59.101561 61.0937,-59.101561 z m 73.711,256.99219 V -41.790619 q 0,-11.953125 -3.9844,-15.9375 -3.9844,-3.984375 -15.9375,-3.984375 h -36.5234 q -11.9532,0 -15.9375,3.984375 -3.3204,3.984375 -3.3204,15.9375 V 148.13126 q 0,11.95312 3.3204,15.9375 3.9843,3.98437 15.9375,3.98437 h 36.5234 q 11.9531,0 15.9375,-3.98437 3.9844,-3.98438 3.9844,-15.9375 z"
         style="font-style:normal;font-variant:normal;font-weight:normal;font-stretch:normal;font-size:664.0625px;font-family:Teko;-inkscape-font-specification:Teko;fill:#0277bd;fill-opacity:1;stroke-width:0.99609375"
         id="path1073"
         inkscape:connector-curvature="0" />
      <path
         d="m 7723.8048,-229.05624 h 59.7656 v 444.25781 h -59.7656 v -25.89844 q -8.6328,25.89844 -41.1719,25.89844 h -23.9062 q -59.7656,0 -59.7656,-58.4375 V -50.423431 q 0,-59.101559 59.7656,-59.101559 h 23.9062 q 32.5391,0 41.1719,25.898434 z m -45.1562,395.78125 h 23.2421 q 11.9532,0 16.6016,-5.3125 5.3125,-5.3125 5.3125,-17.92969 V -37.806244 q 0,-12.617187 -5.3125,-17.929687 -4.6484,-5.3125 -16.6016,-5.3125 h -23.2421 q -11.9532,0 -15.9375,3.984375 -3.9844,3.984375 -3.9844,15.273437 V 147.46719 q 0,11.95313 3.9844,15.9375 3.9843,3.32032 15.9375,3.32032 z"
         style="font-style:normal;font-variant:normal;font-weight:normal;font-stretch:normal;font-size:664.0625px;font-family:Teko;-inkscape-font-specification:Teko;fill:#0277bd;fill-opacity:1;stroke-width:0.99609375"
         id="path1075"
         inkscape:connector-curvature="0" />
      <path
         d="m 7902.0225,-108.86093 h 65.0781 q 62.4219,0 62.4219,59.101561 V 71.764069 h -130.8204 v 77.031251 q 0,11.28906 3.9844,15.27344 3.9844,3.98437 15.9375,3.98437 h 30.5469 q 11.9531,0 15.9375,-3.98437 3.9844,-3.98438 3.9844,-15.9375 v -26.5625 h 58.4375 v 35.19531 q 0,58.4375 -61.7578,58.4375 h -63.75 q -61.7579,0 -61.7579,-58.4375 V -49.759369 q 0,-59.101561 61.7579,-59.101561 z m -3.3204,136.796874 h 71.7188 v -70.390625 q 0,-11.289063 -3.9844,-15.273438 -3.3203,-3.984375 -15.2734,-3.984375 h -32.5391 q -11.9531,0 -15.9375,3.984375 -3.9844,3.984375 -3.9844,15.273438 z"
         style="font-style:normal;font-variant:normal;font-weight:normal;font-stretch:normal;font-size:664.0625px;font-family:Teko;-inkscape-font-specification:Teko;fill:#0277bd;fill-opacity:1;stroke-width:0.99609375"
         id="path1077"
         inkscape:connector-curvature="0" />
      <path
         d="m 8140.0059,215.20157 h -59.7657 v -444.25781 h 59.7657 z"
         style="font-style:normal;font-variant:normal;font-weight:normal;font-stretch:normal;font-size:664.0625px;font-family:Teko;-inkscape-font-specification:Teko;fill:#0277bd;fill-opacity:1;stroke-width:0.99609375"
         id="path1079"
         inkscape:connector-curvature="0" />
    </g>
  </g>
</svg>
