<?xml version="1.0" encoding="UTF-8" standalone="no"?>
<!DOCTYPE svg PUBLIC "-//W3C//DTD SVG 1.1//EN"
 "http://www.w3.org/Graphics/SVG/1.1/DTD/svg11.dtd">
<!-- Generated by graphviz version 2.40.1 (0)
 -->
<!-- Title: inheritanced1c51ecd68 Pages: 1 -->
<svg width="576pt" height="59pt"
 viewBox="0.00 0.00 576.00 59.19" xmlns="http://www.w3.org/2000/svg" xmlns:xlink="http://www.w3.org/1999/xlink">
<g id="graph0" class="graph" transform="scale(.4974 .4974) rotate(0) translate(4 115)">
<title>inheritanced1c51ecd68</title>
<polygon fill="#ffffff" stroke="transparent" points="-4,4 -4,-115 1154,-115 1154,4 -4,4"/>
<!-- pyVHDLModel.VHDLModel.BaseType -->
<g id="node1" class="node">
<title>pyVHDLModel.VHDLModel.BaseType</title>
<g id="a_node1"><a xlink:href="../pyVHDLModel/pyVHDLModel.VHDLModel.html#pyVHDLModel.VHDLModel.BaseType" xlink:title="``BaseType`` is the base class of all type entities in this model." target="_top">
<polygon fill="none" stroke="#000000" stroke-width=".5" points="542,-37 300,-37 300,-18 542,-18 542,-37"/>
<text text-anchor="middle" x="421" y="-25" font-family="Vera Sans, DejaVu Sans, Liberation Sans, Arial, Helvetica, sans" font-size="10.00" fill="#000000">pyVHDLModel.VHDLModel.BaseType</text>
</a>
</g>
</g>
<!-- pyVHDLModel.VHDLModel.ScalarType -->
<g id="node6" class="node">
<title>pyVHDLModel.VHDLModel.ScalarType</title>
<g id="a_node6"><a xlink:href="../pyVHDLModel/pyVHDLModel.VHDLModel.html#pyVHDLModel.VHDLModel.ScalarType" xlink:title="pyVHDLModel.VHDLModel.ScalarType" target="_top">
<polygon fill="none" stroke="#000000" stroke-width=".5" points="842.5,-37 585.5,-37 585.5,-18 842.5,-18 842.5,-37"/>
<text text-anchor="middle" x="714" y="-25" font-family="Vera Sans, DejaVu Sans, Liberation Sans, Arial, Helvetica, sans" font-size="10.00" fill="#000000">pyVHDLModel.VHDLModel.ScalarType</text>
</a>
</g>
</g>
<!-- pyVHDLModel.VHDLModel.BaseType&#45;&gt;pyVHDLModel.VHDLModel.ScalarType -->
<g id="edge6" class="edge">
<title>pyVHDLModel.VHDLModel.BaseType&#45;&gt;pyVHDLModel.VHDLModel.ScalarType</title>
<path fill="none" stroke="#000000" stroke-width=".5" d="M542.2893,-27.5C554.7979,-27.5 567.5594,-27.5 580.1939,-27.5"/>
<polygon fill="#000000" stroke="#000000" stroke-width=".5" points="580.2178,-29.2501 585.2178,-27.5 580.2178,-25.7501 580.2178,-29.2501"/>
</g>
<!-- pyVHDLModel.VHDLModel.ModelEntity -->
<g id="node2" class="node">
<title>pyVHDLModel.VHDLModel.ModelEntity</title>
<g id="a_node2"><a xlink:href="../pyVHDLModel/pyVHDLModel.VHDLModel.html#pyVHDLModel.VHDLModel.ModelEntity" xlink:title="``ModelEntity`` is a base class for all classes in the VHDL language model," target="_top">
<polygon fill="none" stroke="#000000" stroke-width=".5" points="264,-56 0,-56 0,-37 264,-37 264,-56"/>
<text text-anchor="middle" x="132" y="-44" font-family="Vera Sans, DejaVu Sans, Liberation Sans, Arial, Helvetica, sans" font-size="10.00" fill="#000000">pyVHDLModel.VHDLModel.ModelEntity</text>
</a>
</g>
</g>
<!-- pyVHDLModel.VHDLModel.ModelEntity&#45;&gt;pyVHDLModel.VHDLModel.BaseType -->
<g id="edge1" class="edge">
<title>pyVHDLModel.VHDLModel.ModelEntity&#45;&gt;pyVHDLModel.VHDLModel.BaseType</title>
<path fill="none" stroke="#000000" stroke-width=".5" d="M264.2363,-37.8063C274.3615,-37.1406 284.5677,-36.4696 294.6539,-35.8065"/>
<polygon fill="#000000" stroke="#000000" stroke-width=".5" points="295.042,-37.5348 299.9164,-35.4605 294.8123,-34.0424 295.042,-37.5348"/>
</g>
<!-- pyVHDLModel.VHDLModel.NamedEntity -->
<g id="node3" class="node">
<title>pyVHDLModel.VHDLModel.NamedEntity</title>
<g id="a_node3"><a xlink:href="../pyVHDLModel/pyVHDLModel.VHDLModel.html#pyVHDLModel.VHDLModel.NamedEntity" xlink:title="A ``NamedEntity`` is a mixin class for all VHDL entities that have names." target="_top">
<polygon fill="none" stroke="#000000" stroke-width=".5" points="264,-19 0,-19 0,0 264,0 264,-19"/>
<text text-anchor="middle" x="132" y="-7" font-family="Vera Sans, DejaVu Sans, Liberation Sans, Arial, Helvetica, sans" font-size="10.00" fill="#000000">pyVHDLModel.VHDLModel.NamedEntity</text>
</a>
</g>
</g>
<!-- pyVHDLModel.VHDLModel.NamedEntity&#45;&gt;pyVHDLModel.VHDLModel.BaseType -->
<g id="edge2" class="edge">
<title>pyVHDLModel.VHDLModel.NamedEntity&#45;&gt;pyVHDLModel.VHDLModel.BaseType</title>
<path fill="none" stroke="#000000" stroke-width=".5" d="M264.2363,-17.7362C274.3615,-18.3668 284.5677,-19.0025 294.6539,-19.6307"/>
<polygon fill="#000000" stroke="#000000" stroke-width=".5" points="294.8173,-21.3942 299.9164,-19.9585 295.0349,-17.9009 294.8173,-21.3942"/>
</g>
<!-- pyVHDLModel.VHDLModel.DiscreteType -->
<g id="node4" class="node">
<title>pyVHDLModel.VHDLModel.DiscreteType</title>
<g id="a_node4"><a xlink:href="../pyVHDLModel/pyVHDLModel.VHDLModel.html#pyVHDLModel.VHDLModel.DiscreteType" xlink:title="pyVHDLModel.VHDLModel.DiscreteType" target="_top">
<polygon fill="none" stroke="#000000" stroke-width=".5" points="850,-111 578,-111 578,-92 850,-92 850,-111"/>
<text text-anchor="middle" x="714" y="-99" font-family="Vera Sans, DejaVu Sans, Liberation Sans, Arial, Helvetica, sans" font-size="10.00" fill="#000000">pyVHDLModel.VHDLModel.DiscreteType</text>
</a>
</g>
</g>
<!-- pyVHDLModel.VHDLModel.IntegerType -->
<g id="node5" class="node">
<title>pyVHDLModel.VHDLModel.IntegerType</title>
<g id="a_node5"><a xlink:href="../pyVHDLModel/pyVHDLModel.VHDLModel.html#pyVHDLModel.VHDLModel.IntegerType" xlink:title="pyVHDLModel.VHDLModel.IntegerType" target="_top">
<polygon fill="none" stroke="#000000" stroke-width=".5" points="1150,-74 886,-74 886,-55 1150,-55 1150,-74"/>
<text text-anchor="middle" x="1018" y="-62" font-family="Vera Sans, DejaVu Sans, Liberation Sans, Arial, Helvetica, sans" font-size="10.00" fill="#000000">pyVHDLModel.VHDLModel.IntegerType</text>
</a>
</g>
</g>
<!-- pyVHDLModel.VHDLModel.DiscreteType&#45;&gt;pyVHDLModel.VHDLModel.IntegerType -->
<g id="edge5" class="edge">
<title>pyVHDLModel.VHDLModel.DiscreteType&#45;&gt;pyVHDLModel.VHDLModel.IntegerType</title>
<path fill="none" stroke="#000000" stroke-width=".5" d="M792.2876,-91.9716C835.9069,-86.6626 890.2122,-80.0531 934.6244,-74.6477"/>
<polygon fill="#000000" stroke="#000000" stroke-width=".5" points="934.9621,-76.3696 939.714,-74.0282 934.5392,-72.8952 934.9621,-76.3696"/>
</g>
<!-- pyVHDLModel.VHDLModel.ScalarType&#45;&gt;pyVHDLModel.VHDLModel.IntegerType -->
<g id="edge3" class="edge">
<title>pyVHDLModel.VHDLModel.ScalarType&#45;&gt;pyVHDLModel.VHDLModel.IntegerType</title>
<path fill="none" stroke="#000000" stroke-width=".5" d="M792.2876,-37.0284C835.9069,-42.3374 890.2122,-48.9469 934.6244,-54.3523"/>
<polygon fill="#000000" stroke="#000000" stroke-width=".5" points="934.5392,-56.1048 939.714,-54.9718 934.9621,-52.6304 934.5392,-56.1048"/>
</g>
<!-- pyVHDLModel.VHDLModel.NumericType -->
<g id="node7" class="node">
<title>pyVHDLModel.VHDLModel.NumericType</title>
<g id="a_node7"><a xlink:href="../pyVHDLModel/pyVHDLModel.VHDLModel.html#pyVHDLModel.VHDLModel.NumericType" xlink:title="pyVHDLModel.VHDLModel.NumericType" target="_top">
<polygon fill="none" stroke="#000000" stroke-width=".5" points="846,-74 582,-74 582,-55 846,-55 846,-74"/>
<text text-anchor="middle" x="714" y="-62" font-family="Vera Sans, DejaVu Sans, Liberation Sans, Arial, Helvetica, sans" font-size="10.00" fill="#000000">pyVHDLModel.VHDLModel.NumericType</text>
</a>
</g>
</g>
<!-- pyVHDLModel.VHDLModel.NumericType&#45;&gt;pyVHDLModel.VHDLModel.IntegerType -->
<g id="edge4" class="edge">
<title>pyVHDLModel.VHDLModel.NumericType&#45;&gt;pyVHDLModel.VHDLModel.IntegerType</title>
<path fill="none" stroke="#000000" stroke-width=".5" d="M846.0125,-64.5C857.4068,-64.5 868.9536,-64.5 880.3908,-64.5"/>
<polygon fill="#000000" stroke="#000000" stroke-width=".5" points="880.6371,-66.2501 885.637,-64.5 880.637,-62.7501 880.6371,-66.2501"/>
</g>
</g>
</svg>
