<?xml version="1.0" encoding="UTF-8" standalone="no"?>
<!DOCTYPE svg PUBLIC "-//W3C//DTD SVG 1.1//EN"
 "http://www.w3.org/Graphics/SVG/1.1/DTD/svg11.dtd">
<!-- Generated by graphviz version 2.40.1 (0)
 -->
<!-- Title: inheritance0a086cd887 Pages: 1 -->
<svg width="576pt" height="40pt"
 viewBox="0.00 0.00 576.00 39.79" xmlns="http://www.w3.org/2000/svg" xmlns:xlink="http://www.w3.org/1999/xlink">
<g id="graph0" class="graph" transform="scale(.4853 .4853) rotate(0) translate(4 78)">
<title>inheritance0a086cd887</title>
<polygon fill="#ffffff" stroke="transparent" points="-4,4 -4,-78 1183,-78 1183,4 -4,4"/>
<!-- pyVHDLModel.VHDLModel.Method -->
<g id="node1" class="node">
<title>pyVHDLModel.VHDLModel.Method</title>
<g id="a_node1"><a xlink:href="../pyVHDLModel/pyVHDLModel.VHDLModel.html#pyVHDLModel.VHDLModel.Method" xlink:title="pyVHDLModel.VHDLModel.Method" target="_top">
<polygon fill="none" stroke="#000000" stroke-width=".5" points="838,-74 611,-74 611,-55 838,-55 838,-74"/>
<text text-anchor="middle" x="724.5" y="-62" font-family="Vera Sans, DejaVu Sans, Liberation Sans, Arial, Helvetica, sans" font-size="10.00" fill="#000000">pyVHDLModel.VHDLModel.Method</text>
</a>
</g>
</g>
<!-- pyVHDLModel.VHDLModel.ProcedureMethod -->
<g id="node6" class="node">
<title>pyVHDLModel.VHDLModel.ProcedureMethod</title>
<g id="a_node6"><a xlink:href="../pyVHDLModel/pyVHDLModel.VHDLModel.html#pyVHDLModel.VHDLModel.ProcedureMethod" xlink:title="pyVHDLModel.VHDLModel.ProcedureMethod" target="_top">
<polygon fill="none" stroke="#000000" stroke-width=".5" points="1179,-55 885,-55 885,-36 1179,-36 1179,-55"/>
<text text-anchor="middle" x="1032" y="-43" font-family="Vera Sans, DejaVu Sans, Liberation Sans, Arial, Helvetica, sans" font-size="10.00" fill="#000000">pyVHDLModel.VHDLModel.ProcedureMethod</text>
</a>
</g>
</g>
<!-- pyVHDLModel.VHDLModel.Method&#45;&gt;pyVHDLModel.VHDLModel.ProcedureMethod -->
<g id="edge3" class="edge">
<title>pyVHDLModel.VHDLModel.Method&#45;&gt;pyVHDLModel.VHDLModel.ProcedureMethod</title>
<path fill="none" stroke="#000000" stroke-width=".5" d="M838.128,-57.4791C851.6891,-56.6412 865.698,-55.7756 879.691,-54.911"/>
<polygon fill="#000000" stroke="#000000" stroke-width=".5" points="879.9621,-56.6476 884.8447,-54.5925 879.7462,-53.1543 879.9621,-56.6476"/>
</g>
<!-- pyVHDLModel.VHDLModel.ModelEntity -->
<g id="node2" class="node">
<title>pyVHDLModel.VHDLModel.ModelEntity</title>
<g id="a_node2"><a xlink:href="../pyVHDLModel/pyVHDLModel.VHDLModel.html#pyVHDLModel.VHDLModel.ModelEntity" xlink:title="``ModelEntity`` is a base class for all classes in the VHDL language model," target="_top">
<polygon fill="none" stroke="#000000" stroke-width=".5" points="264,-56 0,-56 0,-37 264,-37 264,-56"/>
<text text-anchor="middle" x="132" y="-44" font-family="Vera Sans, DejaVu Sans, Liberation Sans, Arial, Helvetica, sans" font-size="10.00" fill="#000000">pyVHDLModel.VHDLModel.ModelEntity</text>
</a>
</g>
</g>
<!-- pyVHDLModel.VHDLModel.SubProgramm -->
<g id="node5" class="node">
<title>pyVHDLModel.VHDLModel.SubProgramm</title>
<g id="a_node5"><a xlink:href="../pyVHDLModel/pyVHDLModel.VHDLModel.html#pyVHDLModel.VHDLModel.SubProgramm" xlink:title="pyVHDLModel.VHDLModel.SubProgramm" target="_top">
<polygon fill="none" stroke="#000000" stroke-width=".5" points="564,-37 300,-37 300,-18 564,-18 564,-37"/>
<text text-anchor="middle" x="432" y="-25" font-family="Vera Sans, DejaVu Sans, Liberation Sans, Arial, Helvetica, sans" font-size="10.00" fill="#000000">pyVHDLModel.VHDLModel.SubProgramm</text>
</a>
</g>
</g>
<!-- pyVHDLModel.VHDLModel.ModelEntity&#45;&gt;pyVHDLModel.VHDLModel.SubProgramm -->
<g id="edge4" class="edge">
<title>pyVHDLModel.VHDLModel.ModelEntity&#45;&gt;pyVHDLModel.VHDLModel.SubProgramm</title>
<path fill="none" stroke="#000000" stroke-width=".5" d="M264.0209,-38.1387C274.0609,-37.5028 284.2098,-36.86 294.2843,-36.222"/>
<polygon fill="#000000" stroke="#000000" stroke-width=".5" points="294.6656,-37.9514 299.5449,-35.8888 294.4443,-34.4584 294.6656,-37.9514"/>
</g>
<!-- pyVHDLModel.VHDLModel.NamedEntity -->
<g id="node3" class="node">
<title>pyVHDLModel.VHDLModel.NamedEntity</title>
<g id="a_node3"><a xlink:href="../pyVHDLModel/pyVHDLModel.VHDLModel.html#pyVHDLModel.VHDLModel.NamedEntity" xlink:title="A ``NamedEntity`` is a mixin class for all VHDL entities that have names." target="_top">
<polygon fill="none" stroke="#000000" stroke-width=".5" points="264,-19 0,-19 0,0 264,0 264,-19"/>
<text text-anchor="middle" x="132" y="-7" font-family="Vera Sans, DejaVu Sans, Liberation Sans, Arial, Helvetica, sans" font-size="10.00" fill="#000000">pyVHDLModel.VHDLModel.NamedEntity</text>
</a>
</g>
</g>
<!-- pyVHDLModel.VHDLModel.NamedEntity&#45;&gt;pyVHDLModel.VHDLModel.SubProgramm -->
<g id="edge5" class="edge">
<title>pyVHDLModel.VHDLModel.NamedEntity&#45;&gt;pyVHDLModel.VHDLModel.SubProgramm</title>
<path fill="none" stroke="#000000" stroke-width=".5" d="M264.0209,-17.4213C274.0609,-18.0237 284.2098,-18.6326 294.2843,-19.2371"/>
<polygon fill="#000000" stroke="#000000" stroke-width=".5" points="294.4491,-21 299.5449,-19.5527 294.6587,-17.5063 294.4491,-21"/>
</g>
<!-- pyVHDLModel.VHDLModel.Procedure -->
<g id="node4" class="node">
<title>pyVHDLModel.VHDLModel.Procedure</title>
<g id="a_node4"><a xlink:href="../pyVHDLModel/pyVHDLModel.VHDLModel.html#pyVHDLModel.VHDLModel.Procedure" xlink:title="pyVHDLModel.VHDLModel.Procedure" target="_top">
<polygon fill="none" stroke="#000000" stroke-width=".5" points="849,-37 600,-37 600,-18 849,-18 849,-37"/>
<text text-anchor="middle" x="724.5" y="-25" font-family="Vera Sans, DejaVu Sans, Liberation Sans, Arial, Helvetica, sans" font-size="10.00" fill="#000000">pyVHDLModel.VHDLModel.Procedure</text>
</a>
</g>
</g>
<!-- pyVHDLModel.VHDLModel.Procedure&#45;&gt;pyVHDLModel.VHDLModel.ProcedureMethod -->
<g id="edge2" class="edge">
<title>pyVHDLModel.VHDLModel.Procedure&#45;&gt;pyVHDLModel.VHDLModel.ProcedureMethod</title>
<path fill="none" stroke="#000000" stroke-width=".5" d="M849.1287,-34.7953C859.2151,-35.3858 869.4751,-35.9863 879.7263,-36.5864"/>
<polygon fill="#000000" stroke="#000000" stroke-width=".5" points="879.6635,-38.3356 884.7572,-36.8809 879.8681,-34.8416 879.6635,-38.3356"/>
</g>
<!-- pyVHDLModel.VHDLModel.SubProgramm&#45;&gt;pyVHDLModel.VHDLModel.Procedure -->
<g id="edge1" class="edge">
<title>pyVHDLModel.VHDLModel.SubProgramm&#45;&gt;pyVHDLModel.VHDLModel.Procedure</title>
<path fill="none" stroke="#000000" stroke-width=".5" d="M564.1302,-27.5C574.1862,-27.5 584.3321,-27.5 594.3753,-27.5"/>
<polygon fill="#000000" stroke="#000000" stroke-width=".5" points="594.6169,-29.2501 599.6168,-27.5 594.6168,-25.7501 594.6169,-29.2501"/>
</g>
</g>
</svg>
