<?xml version="1.0" encoding="UTF-8" standalone="no"?>
<!DOCTYPE svg PUBLIC "-//W3C//DTD SVG 1.1//EN"
 "http://www.w3.org/Graphics/SVG/1.1/DTD/svg11.dtd">
<!-- Generated by graphviz version 2.40.1 (0)
 -->
<!-- Title: inheritance3ddbbd5ddc Pages: 1 -->
<svg width="576pt" height="45pt"
 viewBox="0.00 0.00 576.00 45.34" xmlns="http://www.w3.org/2000/svg" xmlns:xlink="http://www.w3.org/1999/xlink">
<g id="graph0" class="graph" transform="scale(.7085 .7085) rotate(0) translate(4 60)">
<title>inheritance3ddbbd5ddc</title>
<polygon fill="#ffffff" stroke="transparent" points="-4,4 -4,-60 809,-60 809,4 -4,4"/>
<!-- pyVHDLModel.VHDLModel.ModelEntity -->
<g id="node1" class="node">
<title>pyVHDLModel.VHDLModel.ModelEntity</title>
<g id="a_node1"><a xlink:href="../pyVHDLModel/pyVHDLModel.VHDLModel.html#pyVHDLModel.VHDLModel.ModelEntity" xlink:title="``ModelEntity`` is a base class for all classes in the VHDL language model," target="_top">
<polygon fill="none" stroke="#000000" stroke-width=".5" points="264,-56 0,-56 0,-37 264,-37 264,-56"/>
<text text-anchor="middle" x="132" y="-44" font-family="Vera Sans, DejaVu Sans, Liberation Sans, Arial, Helvetica, sans" font-size="10.00" fill="#000000">pyVHDLModel.VHDLModel.ModelEntity</text>
</a>
</g>
</g>
<!-- pyVHDLModel.VHDLModel.Object -->
<g id="node3" class="node">
<title>pyVHDLModel.VHDLModel.Object</title>
<g id="a_node3"><a xlink:href="../pyVHDLModel/pyVHDLModel.VHDLModel.html#pyVHDLModel.VHDLModel.Object" xlink:title="pyVHDLModel.VHDLModel.Object" target="_top">
<polygon fill="none" stroke="#000000" stroke-width=".5" points="527,-37 300,-37 300,-18 527,-18 527,-37"/>
<text text-anchor="middle" x="413.5" y="-25" font-family="Vera Sans, DejaVu Sans, Liberation Sans, Arial, Helvetica, sans" font-size="10.00" fill="#000000">pyVHDLModel.VHDLModel.Object</text>
</a>
</g>
</g>
<!-- pyVHDLModel.VHDLModel.ModelEntity&#45;&gt;pyVHDLModel.VHDLModel.Object -->
<g id="edge1" class="edge">
<title>pyVHDLModel.VHDLModel.ModelEntity&#45;&gt;pyVHDLModel.VHDLModel.Object</title>
<path fill="none" stroke="#000000" stroke-width=".5" d="M264.0954,-37.5841C274.4073,-36.8881 284.7813,-36.1879 294.995,-35.4986"/>
<polygon fill="#000000" stroke="#000000" stroke-width=".5" points="295.1244,-37.2439 299.9951,-35.1611 294.8886,-33.7519 295.1244,-37.2439"/>
</g>
<!-- pyVHDLModel.VHDLModel.NamedEntity -->
<g id="node2" class="node">
<title>pyVHDLModel.VHDLModel.NamedEntity</title>
<g id="a_node2"><a xlink:href="../pyVHDLModel/pyVHDLModel.VHDLModel.html#pyVHDLModel.VHDLModel.NamedEntity" xlink:title="A ``NamedEntity`` is a mixin class for all VHDL entities that have names." target="_top">
<polygon fill="none" stroke="#000000" stroke-width=".5" points="264,-19 0,-19 0,0 264,0 264,-19"/>
<text text-anchor="middle" x="132" y="-7" font-family="Vera Sans, DejaVu Sans, Liberation Sans, Arial, Helvetica, sans" font-size="10.00" fill="#000000">pyVHDLModel.VHDLModel.NamedEntity</text>
</a>
</g>
</g>
<!-- pyVHDLModel.VHDLModel.NamedEntity&#45;&gt;pyVHDLModel.VHDLModel.Object -->
<g id="edge2" class="edge">
<title>pyVHDLModel.VHDLModel.NamedEntity&#45;&gt;pyVHDLModel.VHDLModel.Object</title>
<path fill="none" stroke="#000000" stroke-width=".5" d="M264.0954,-17.9466C274.4073,-18.606 284.7813,-19.2693 294.995,-19.9224"/>
<polygon fill="#000000" stroke="#000000" stroke-width=".5" points="294.8936,-21.6694 299.9951,-20.2421 295.117,-18.1765 294.8936,-21.6694"/>
</g>
<!-- pyVHDLModel.VHDLModel.Variable -->
<g id="node4" class="node">
<title>pyVHDLModel.VHDLModel.Variable</title>
<g id="a_node4"><a xlink:href="../pyVHDLModel/pyVHDLModel.VHDLModel.html#pyVHDLModel.VHDLModel.Variable" xlink:title="pyVHDLModel.VHDLModel.Variable" target="_top">
<polygon fill="none" stroke="#000000" stroke-width=".5" points="805,-37 563,-37 563,-18 805,-18 805,-37"/>
<text text-anchor="middle" x="684" y="-25" font-family="Vera Sans, DejaVu Sans, Liberation Sans, Arial, Helvetica, sans" font-size="10.00" fill="#000000">pyVHDLModel.VHDLModel.Variable</text>
</a>
</g>
</g>
<!-- pyVHDLModel.VHDLModel.Object&#45;&gt;pyVHDLModel.VHDLModel.Variable -->
<g id="edge3" class="edge">
<title>pyVHDLModel.VHDLModel.Object&#45;&gt;pyVHDLModel.VHDLModel.Variable</title>
<path fill="none" stroke="#000000" stroke-width=".5" d="M527.0406,-27.5C537.229,-27.5 547.5862,-27.5 557.8727,-27.5"/>
<polygon fill="#000000" stroke="#000000" stroke-width=".5" points="557.9157,-29.2501 562.9157,-27.5 557.9156,-25.7501 557.9157,-29.2501"/>
</g>
</g>
</svg>
