<?xml version="1.0" encoding="UTF-8" standalone="no"?>
<!DOCTYPE svg PUBLIC "-//W3C//DTD SVG 1.1//EN"
 "http://www.w3.org/Graphics/SVG/1.1/DTD/svg11.dtd">
<!-- Generated by graphviz version 2.40.1 (0)
 -->
<!-- Title: inheritance7201084ee1 Pages: 1 -->
<svg width="576pt" height="40pt"
 viewBox="0.00 0.00 576.00 40.27" xmlns="http://www.w3.org/2000/svg" xmlns:xlink="http://www.w3.org/1999/xlink">
<g id="graph0" class="graph" transform="scale(.491 .491) rotate(0) translate(4 78)">
<title>inheritance7201084ee1</title>
<polygon fill="#ffffff" stroke="transparent" points="-4,4 -4,-78 1169,-78 1169,4 -4,4"/>
<!-- pyVHDLModel.VHDLModel.Function -->
<g id="node1" class="node">
<title>pyVHDLModel.VHDLModel.Function</title>
<g id="a_node1"><a xlink:href="../pyVHDLModel/pyVHDLModel.VHDLModel.html#pyVHDLModel.VHDLModel.Function" xlink:title="pyVHDLModel.VHDLModel.Function" target="_top">
<polygon fill="none" stroke="#000000" stroke-width=".5" points="842,-37 600,-37 600,-18 842,-18 842,-37"/>
<text text-anchor="middle" x="721" y="-25" font-family="Vera Sans, DejaVu Sans, Liberation Sans, Arial, Helvetica, sans" font-size="10.00" fill="#000000">pyVHDLModel.VHDLModel.Function</text>
</a>
</g>
</g>
<!-- pyVHDLModel.VHDLModel.FunctionMethod -->
<g id="node3" class="node">
<title>pyVHDLModel.VHDLModel.FunctionMethod</title>
<g id="a_node3"><a xlink:href="../pyVHDLModel/pyVHDLModel.VHDLModel.html#pyVHDLModel.VHDLModel.FunctionMethod" xlink:title="pyVHDLModel.VHDLModel.FunctionMethod" target="_top">
<polygon fill="none" stroke="#000000" stroke-width=".5" points="1165,-55 878,-55 878,-36 1165,-36 1165,-55"/>
<text text-anchor="middle" x="1021.5" y="-43" font-family="Vera Sans, DejaVu Sans, Liberation Sans, Arial, Helvetica, sans" font-size="10.00" fill="#000000">pyVHDLModel.VHDLModel.FunctionMethod</text>
</a>
</g>
</g>
<!-- pyVHDLModel.VHDLModel.Function&#45;&gt;pyVHDLModel.VHDLModel.FunctionMethod -->
<g id="edge2" class="edge">
<title>pyVHDLModel.VHDLModel.Function&#45;&gt;pyVHDLModel.VHDLModel.FunctionMethod</title>
<path fill="none" stroke="#000000" stroke-width=".5" d="M842.3587,-34.7694C852.4375,-35.3731 862.6966,-35.9876 872.9452,-36.6015"/>
<polygon fill="#000000" stroke="#000000" stroke-width=".5" points="872.8789,-38.3506 877.9746,-36.9028 873.0882,-34.8569 872.8789,-38.3506"/>
</g>
<!-- pyVHDLModel.VHDLModel.SubProgramm -->
<g id="node2" class="node">
<title>pyVHDLModel.VHDLModel.SubProgramm</title>
<g id="a_node2"><a xlink:href="../pyVHDLModel/pyVHDLModel.VHDLModel.html#pyVHDLModel.VHDLModel.SubProgramm" xlink:title="pyVHDLModel.VHDLModel.SubProgramm" target="_top">
<polygon fill="none" stroke="#000000" stroke-width=".5" points="564,-37 300,-37 300,-18 564,-18 564,-37"/>
<text text-anchor="middle" x="432" y="-25" font-family="Vera Sans, DejaVu Sans, Liberation Sans, Arial, Helvetica, sans" font-size="10.00" fill="#000000">pyVHDLModel.VHDLModel.SubProgramm</text>
</a>
</g>
</g>
<!-- pyVHDLModel.VHDLModel.SubProgramm&#45;&gt;pyVHDLModel.VHDLModel.Function -->
<g id="edge1" class="edge">
<title>pyVHDLModel.VHDLModel.SubProgramm&#45;&gt;pyVHDLModel.VHDLModel.Function</title>
<path fill="none" stroke="#000000" stroke-width=".5" d="M564.2363,-27.5C574.3615,-27.5 584.5677,-27.5 594.6539,-27.5"/>
<polygon fill="#000000" stroke="#000000" stroke-width=".5" points="594.9164,-29.2501 599.9164,-27.5 594.9164,-25.7501 594.9164,-29.2501"/>
</g>
<!-- pyVHDLModel.VHDLModel.Method -->
<g id="node4" class="node">
<title>pyVHDLModel.VHDLModel.Method</title>
<g id="a_node4"><a xlink:href="../pyVHDLModel/pyVHDLModel.VHDLModel.html#pyVHDLModel.VHDLModel.Method" xlink:title="pyVHDLModel.VHDLModel.Method" target="_top">
<polygon fill="none" stroke="#000000" stroke-width=".5" points="834.5,-74 607.5,-74 607.5,-55 834.5,-55 834.5,-74"/>
<text text-anchor="middle" x="721" y="-62" font-family="Vera Sans, DejaVu Sans, Liberation Sans, Arial, Helvetica, sans" font-size="10.00" fill="#000000">pyVHDLModel.VHDLModel.Method</text>
</a>
</g>
</g>
<!-- pyVHDLModel.VHDLModel.Method&#45;&gt;pyVHDLModel.VHDLModel.FunctionMethod -->
<g id="edge3" class="edge">
<title>pyVHDLModel.VHDLModel.Method&#45;&gt;pyVHDLModel.VHDLModel.FunctionMethod</title>
<path fill="none" stroke="#000000" stroke-width=".5" d="M834.6062,-57.3169C847.0779,-56.5283 859.9085,-55.7171 872.7247,-54.9068"/>
<polygon fill="#000000" stroke="#000000" stroke-width=".5" points="872.9473,-56.6463 877.8268,-54.5842 872.7263,-53.1532 872.9473,-56.6463"/>
</g>
<!-- pyVHDLModel.VHDLModel.ModelEntity -->
<g id="node5" class="node">
<title>pyVHDLModel.VHDLModel.ModelEntity</title>
<g id="a_node5"><a xlink:href="../pyVHDLModel/pyVHDLModel.VHDLModel.html#pyVHDLModel.VHDLModel.ModelEntity" xlink:title="``ModelEntity`` is a base class for all classes in the VHDL language model," target="_top">
<polygon fill="none" stroke="#000000" stroke-width=".5" points="264,-56 0,-56 0,-37 264,-37 264,-56"/>
<text text-anchor="middle" x="132" y="-44" font-family="Vera Sans, DejaVu Sans, Liberation Sans, Arial, Helvetica, sans" font-size="10.00" fill="#000000">pyVHDLModel.VHDLModel.ModelEntity</text>
</a>
</g>
</g>
<!-- pyVHDLModel.VHDLModel.ModelEntity&#45;&gt;pyVHDLModel.VHDLModel.SubProgramm -->
<g id="edge4" class="edge">
<title>pyVHDLModel.VHDLModel.ModelEntity&#45;&gt;pyVHDLModel.VHDLModel.SubProgramm</title>
<path fill="none" stroke="#000000" stroke-width=".5" d="M264.0209,-38.1387C274.0609,-37.5028 284.2098,-36.86 294.2843,-36.222"/>
<polygon fill="#000000" stroke="#000000" stroke-width=".5" points="294.6656,-37.9514 299.5449,-35.8888 294.4443,-34.4584 294.6656,-37.9514"/>
</g>
<!-- pyVHDLModel.VHDLModel.NamedEntity -->
<g id="node6" class="node">
<title>pyVHDLModel.VHDLModel.NamedEntity</title>
<g id="a_node6"><a xlink:href="../pyVHDLModel/pyVHDLModel.VHDLModel.html#pyVHDLModel.VHDLModel.NamedEntity" xlink:title="A ``NamedEntity`` is a mixin class for all VHDL entities that have names." target="_top">
<polygon fill="none" stroke="#000000" stroke-width=".5" points="264,-19 0,-19 0,0 264,0 264,-19"/>
<text text-anchor="middle" x="132" y="-7" font-family="Vera Sans, DejaVu Sans, Liberation Sans, Arial, Helvetica, sans" font-size="10.00" fill="#000000">pyVHDLModel.VHDLModel.NamedEntity</text>
</a>
</g>
</g>
<!-- pyVHDLModel.VHDLModel.NamedEntity&#45;&gt;pyVHDLModel.VHDLModel.SubProgramm -->
<g id="edge5" class="edge">
<title>pyVHDLModel.VHDLModel.NamedEntity&#45;&gt;pyVHDLModel.VHDLModel.SubProgramm</title>
<path fill="none" stroke="#000000" stroke-width=".5" d="M264.0209,-17.4213C274.0609,-18.0237 284.2098,-18.6326 294.2843,-19.2371"/>
<polygon fill="#000000" stroke="#000000" stroke-width=".5" points="294.4491,-21 299.5449,-19.5527 294.6587,-17.5063 294.4491,-21"/>
</g>
</g>
</svg>
