<?xml version="1.0" encoding="UTF-8" standalone="no"?>
<!DOCTYPE svg PUBLIC "-//W3C//DTD SVG 1.1//EN"
 "http://www.w3.org/Graphics/SVG/1.1/DTD/svg11.dtd">
<!-- Generated by graphviz version 2.40.1 (0)
 -->
<!-- Title: inheritance88ee6fe1d9 Pages: 1 -->
<svg width="576pt" height="42pt"
 viewBox="0.00 0.00 576.00 41.87" xmlns="http://www.w3.org/2000/svg" xmlns:xlink="http://www.w3.org/1999/xlink">
<g id="graph0" class="graph" transform="scale(.5106 .5106) rotate(0) translate(4 78)">
<title>inheritance88ee6fe1d9</title>
<polygon fill="#ffffff" stroke="transparent" points="-4,4 -4,-78 1124,-78 1124,4 -4,4"/>
<!-- pyVHDLModel.VHDLModel.BaseType -->
<g id="node1" class="node">
<title>pyVHDLModel.VHDLModel.BaseType</title>
<g id="a_node1"><a xlink:href="../pyVHDLModel/pyVHDLModel.VHDLModel.html#pyVHDLModel.VHDLModel.BaseType" xlink:title="``BaseType`` is the base class of all type entities in this model." target="_top">
<polygon fill="none" stroke="#000000" stroke-width=".5" points="542,-37 300,-37 300,-18 542,-18 542,-37"/>
<text text-anchor="middle" x="421" y="-25" font-family="Vera Sans, DejaVu Sans, Liberation Sans, Arial, Helvetica, sans" font-size="10.00" fill="#000000">pyVHDLModel.VHDLModel.BaseType</text>
</a>
</g>
</g>
<!-- pyVHDLModel.VHDLModel.ScalarType -->
<g id="node6" class="node">
<title>pyVHDLModel.VHDLModel.ScalarType</title>
<g id="a_node6"><a xlink:href="../pyVHDLModel/pyVHDLModel.VHDLModel.html#pyVHDLModel.VHDLModel.ScalarType" xlink:title="pyVHDLModel.VHDLModel.ScalarType" target="_top">
<polygon fill="none" stroke="#000000" stroke-width=".5" points="838.5,-37 581.5,-37 581.5,-18 838.5,-18 838.5,-37"/>
<text text-anchor="middle" x="710" y="-25" font-family="Vera Sans, DejaVu Sans, Liberation Sans, Arial, Helvetica, sans" font-size="10.00" fill="#000000">pyVHDLModel.VHDLModel.ScalarType</text>
</a>
</g>
</g>
<!-- pyVHDLModel.VHDLModel.BaseType&#45;&gt;pyVHDLModel.VHDLModel.ScalarType -->
<g id="edge5" class="edge">
<title>pyVHDLModel.VHDLModel.BaseType&#45;&gt;pyVHDLModel.VHDLModel.ScalarType</title>
<path fill="none" stroke="#000000" stroke-width=".5" d="M542.3059,-27.5C553.424,-27.5 564.7302,-27.5 575.9519,-27.5"/>
<polygon fill="#000000" stroke="#000000" stroke-width=".5" points="576.101,-29.2501 581.1009,-27.5 576.1009,-25.7501 576.101,-29.2501"/>
</g>
<!-- pyVHDLModel.VHDLModel.ModelEntity -->
<g id="node2" class="node">
<title>pyVHDLModel.VHDLModel.ModelEntity</title>
<g id="a_node2"><a xlink:href="../pyVHDLModel/pyVHDLModel.VHDLModel.html#pyVHDLModel.VHDLModel.ModelEntity" xlink:title="``ModelEntity`` is a base class for all classes in the VHDL language model," target="_top">
<polygon fill="none" stroke="#000000" stroke-width=".5" points="264,-56 0,-56 0,-37 264,-37 264,-56"/>
<text text-anchor="middle" x="132" y="-44" font-family="Vera Sans, DejaVu Sans, Liberation Sans, Arial, Helvetica, sans" font-size="10.00" fill="#000000">pyVHDLModel.VHDLModel.ModelEntity</text>
</a>
</g>
</g>
<!-- pyVHDLModel.VHDLModel.ModelEntity&#45;&gt;pyVHDLModel.VHDLModel.BaseType -->
<g id="edge1" class="edge">
<title>pyVHDLModel.VHDLModel.ModelEntity&#45;&gt;pyVHDLModel.VHDLModel.BaseType</title>
<path fill="none" stroke="#000000" stroke-width=".5" d="M264.2363,-37.8063C274.3615,-37.1406 284.5677,-36.4696 294.6539,-35.8065"/>
<polygon fill="#000000" stroke="#000000" stroke-width=".5" points="295.042,-37.5348 299.9164,-35.4605 294.8123,-34.0424 295.042,-37.5348"/>
</g>
<!-- pyVHDLModel.VHDLModel.NamedEntity -->
<g id="node3" class="node">
<title>pyVHDLModel.VHDLModel.NamedEntity</title>
<g id="a_node3"><a xlink:href="../pyVHDLModel/pyVHDLModel.VHDLModel.html#pyVHDLModel.VHDLModel.NamedEntity" xlink:title="A ``NamedEntity`` is a mixin class for all VHDL entities that have names." target="_top">
<polygon fill="none" stroke="#000000" stroke-width=".5" points="264,-19 0,-19 0,0 264,0 264,-19"/>
<text text-anchor="middle" x="132" y="-7" font-family="Vera Sans, DejaVu Sans, Liberation Sans, Arial, Helvetica, sans" font-size="10.00" fill="#000000">pyVHDLModel.VHDLModel.NamedEntity</text>
</a>
</g>
</g>
<!-- pyVHDLModel.VHDLModel.NamedEntity&#45;&gt;pyVHDLModel.VHDLModel.BaseType -->
<g id="edge2" class="edge">
<title>pyVHDLModel.VHDLModel.NamedEntity&#45;&gt;pyVHDLModel.VHDLModel.BaseType</title>
<path fill="none" stroke="#000000" stroke-width=".5" d="M264.2363,-17.7362C274.3615,-18.3668 284.5677,-19.0025 294.6539,-19.6307"/>
<polygon fill="#000000" stroke="#000000" stroke-width=".5" points="294.8173,-21.3942 299.9164,-19.9585 295.0349,-17.9009 294.8173,-21.3942"/>
</g>
<!-- pyVHDLModel.VHDLModel.NumericType -->
<g id="node4" class="node">
<title>pyVHDLModel.VHDLModel.NumericType</title>
<g id="a_node4"><a xlink:href="../pyVHDLModel/pyVHDLModel.VHDLModel.html#pyVHDLModel.VHDLModel.NumericType" xlink:title="pyVHDLModel.VHDLModel.NumericType" target="_top">
<polygon fill="none" stroke="#000000" stroke-width=".5" points="842,-74 578,-74 578,-55 842,-55 842,-74"/>
<text text-anchor="middle" x="710" y="-62" font-family="Vera Sans, DejaVu Sans, Liberation Sans, Arial, Helvetica, sans" font-size="10.00" fill="#000000">pyVHDLModel.VHDLModel.NumericType</text>
</a>
</g>
</g>
<!-- pyVHDLModel.VHDLModel.RealType -->
<g id="node5" class="node">
<title>pyVHDLModel.VHDLModel.RealType</title>
<g id="a_node5"><a xlink:href="../pyVHDLModel/pyVHDLModel.VHDLModel.html#pyVHDLModel.VHDLModel.RealType" xlink:title="pyVHDLModel.VHDLModel.RealType" target="_top">
<polygon fill="none" stroke="#000000" stroke-width=".5" points="1120,-55 878,-55 878,-36 1120,-36 1120,-55"/>
<text text-anchor="middle" x="999" y="-43" font-family="Vera Sans, DejaVu Sans, Liberation Sans, Arial, Helvetica, sans" font-size="10.00" fill="#000000">pyVHDLModel.VHDLModel.RealType</text>
</a>
</g>
</g>
<!-- pyVHDLModel.VHDLModel.NumericType&#45;&gt;pyVHDLModel.VHDLModel.RealType -->
<g id="edge4" class="edge">
<title>pyVHDLModel.VHDLModel.NumericType&#45;&gt;pyVHDLModel.VHDLModel.RealType</title>
<path fill="none" stroke="#000000" stroke-width=".5" d="M842.2363,-55.8063C852.3615,-55.1406 862.5677,-54.4696 872.6539,-53.8065"/>
<polygon fill="#000000" stroke="#000000" stroke-width=".5" points="873.042,-55.5348 877.9164,-53.4605 872.8123,-52.0424 873.042,-55.5348"/>
</g>
<!-- pyVHDLModel.VHDLModel.ScalarType&#45;&gt;pyVHDLModel.VHDLModel.RealType -->
<g id="edge3" class="edge">
<title>pyVHDLModel.VHDLModel.ScalarType&#45;&gt;pyVHDLModel.VHDLModel.RealType</title>
<path fill="none" stroke="#000000" stroke-width=".5" d="M838.8637,-35.5261C850.0892,-36.2253 861.4422,-36.9324 872.6472,-37.6303"/>
<polygon fill="#000000" stroke="#000000" stroke-width=".5" points="872.6849,-39.3859 877.784,-37.9502 872.9025,-35.8927 872.6849,-39.3859"/>
</g>
</g>
</svg>
