<?xml version="1.0" encoding="UTF-8" standalone="no"?>
<!DOCTYPE svg PUBLIC "-//W3C//DTD SVG 1.1//EN"
 "http://www.w3.org/Graphics/SVG/1.1/DTD/svg11.dtd">
<!-- Generated by graphviz version 2.40.1 (0)
 -->
<!-- Title: inheritancea1ad23801a Pages: 1 -->
<svg width="576pt" height="42pt"
 viewBox="0.00 0.00 576.00 41.51" xmlns="http://www.w3.org/2000/svg" xmlns:xlink="http://www.w3.org/1999/xlink">
<g id="graph0" class="graph" transform="scale(.6486 .6486) rotate(0) translate(4 60)">
<title>inheritancea1ad23801a</title>
<polygon fill="#ffffff" stroke="transparent" points="-4,4 -4,-60 884,-60 884,4 -4,4"/>
<!-- pyVHDLModel.VHDLModel.BaseBranch -->
<g id="node1" class="node">
<title>pyVHDLModel.VHDLModel.BaseBranch</title>
<g id="a_node1"><a xlink:href="../pyVHDLModel/pyVHDLModel.VHDLModel.html#pyVHDLModel.VHDLModel.BaseBranch" xlink:title="pyVHDLModel.VHDLModel.BaseBranch" target="_top">
<polygon fill="none" stroke="#000000" stroke-width=".5" points="260.5,-56 3.5,-56 3.5,-37 260.5,-37 260.5,-56"/>
<text text-anchor="middle" x="132" y="-44" font-family="Vera Sans, DejaVu Sans, Liberation Sans, Arial, Helvetica, sans" font-size="10.00" fill="#000000">pyVHDLModel.VHDLModel.BaseBranch</text>
</a>
</g>
</g>
<!-- pyVHDLModel.VHDLModel.BaseElseBranch -->
<g id="node2" class="node">
<title>pyVHDLModel.VHDLModel.BaseElseBranch</title>
<g id="a_node2"><a xlink:href="../pyVHDLModel/pyVHDLModel.VHDLModel.html#pyVHDLModel.VHDLModel.BaseElseBranch" xlink:title="pyVHDLModel.VHDLModel.BaseElseBranch" target="_top">
<polygon fill="none" stroke="#000000" stroke-width=".5" points="587,-56 300,-56 300,-37 587,-37 587,-56"/>
<text text-anchor="middle" x="443.5" y="-44" font-family="Vera Sans, DejaVu Sans, Liberation Sans, Arial, Helvetica, sans" font-size="10.00" fill="#000000">pyVHDLModel.VHDLModel.BaseElseBranch</text>
</a>
</g>
</g>
<!-- pyVHDLModel.VHDLModel.BaseBranch&#45;&gt;pyVHDLModel.VHDLModel.BaseElseBranch -->
<g id="edge1" class="edge">
<title>pyVHDLModel.VHDLModel.BaseBranch&#45;&gt;pyVHDLModel.VHDLModel.BaseElseBranch</title>
<path fill="none" stroke="#000000" stroke-width=".5" d="M260.9475,-46.5C272.0511,-46.5 283.3421,-46.5 294.5854,-46.5"/>
<polygon fill="#000000" stroke="#000000" stroke-width=".5" points="294.7472,-48.2501 299.7471,-46.5 294.7471,-44.7501 294.7472,-48.2501"/>
</g>
<!-- pyVHDLModel.VHDLModel.ElseBranch -->
<g id="node5" class="node">
<title>pyVHDLModel.VHDLModel.ElseBranch</title>
<g id="a_node5"><a xlink:href="../pyVHDLModel/pyVHDLModel.VHDLModel.html#pyVHDLModel.VHDLModel.ElseBranch" xlink:title="pyVHDLModel.VHDLModel.ElseBranch" target="_top">
<polygon fill="none" stroke="#000000" stroke-width=".5" points="880,-37 623,-37 623,-18 880,-18 880,-37"/>
<text text-anchor="middle" x="751.5" y="-25" font-family="Vera Sans, DejaVu Sans, Liberation Sans, Arial, Helvetica, sans" font-size="10.00" fill="#000000">pyVHDLModel.VHDLModel.ElseBranch</text>
</a>
</g>
</g>
<!-- pyVHDLModel.VHDLModel.BaseElseBranch&#45;&gt;pyVHDLModel.VHDLModel.ElseBranch -->
<g id="edge4" class="edge">
<title>pyVHDLModel.VHDLModel.BaseElseBranch&#45;&gt;pyVHDLModel.VHDLModel.ElseBranch</title>
<path fill="none" stroke="#000000" stroke-width=".5" d="M587.13,-37.6397C597.2798,-37.0136 607.49,-36.3837 617.583,-35.7611"/>
<polygon fill="#000000" stroke="#000000" stroke-width=".5" points="617.9667,-37.4909 622.8494,-35.4362 617.7511,-33.9975 617.9667,-37.4909"/>
</g>
<!-- pyVHDLModel.VHDLModel.Branch -->
<g id="node3" class="node">
<title>pyVHDLModel.VHDLModel.Branch</title>
<g id="a_node3"><a xlink:href="../pyVHDLModel/pyVHDLModel.VHDLModel.html#pyVHDLModel.VHDLModel.Branch" xlink:title="pyVHDLModel.VHDLModel.Branch" target="_top">
<polygon fill="none" stroke="#000000" stroke-width=".5" points="557,-19 330,-19 330,0 557,0 557,-19"/>
<text text-anchor="middle" x="443.5" y="-7" font-family="Vera Sans, DejaVu Sans, Liberation Sans, Arial, Helvetica, sans" font-size="10.00" fill="#000000">pyVHDLModel.VHDLModel.Branch</text>
</a>
</g>
</g>
<!-- pyVHDLModel.VHDLModel.Branch&#45;&gt;pyVHDLModel.VHDLModel.ElseBranch -->
<g id="edge3" class="edge">
<title>pyVHDLModel.VHDLModel.Branch&#45;&gt;pyVHDLModel.VHDLModel.ElseBranch</title>
<path fill="none" stroke="#000000" stroke-width=".5" d="M557.3128,-16.1514C576.9806,-17.3008 597.5888,-18.5052 617.7274,-19.6821"/>
<polygon fill="#000000" stroke="#000000" stroke-width=".5" points="617.7428,-21.4359 622.8364,-19.9807 617.947,-17.9419 617.7428,-21.4359"/>
</g>
<!-- pyVHDLModel.VHDLModel.ModelEntity -->
<g id="node4" class="node">
<title>pyVHDLModel.VHDLModel.ModelEntity</title>
<g id="a_node4"><a xlink:href="../pyVHDLModel/pyVHDLModel.VHDLModel.html#pyVHDLModel.VHDLModel.ModelEntity" xlink:title="``ModelEntity`` is a base class for all classes in the VHDL language model," target="_top">
<polygon fill="none" stroke="#000000" stroke-width=".5" points="264,-19 0,-19 0,0 264,0 264,-19"/>
<text text-anchor="middle" x="132" y="-7" font-family="Vera Sans, DejaVu Sans, Liberation Sans, Arial, Helvetica, sans" font-size="10.00" fill="#000000">pyVHDLModel.VHDLModel.ModelEntity</text>
</a>
</g>
</g>
<!-- pyVHDLModel.VHDLModel.ModelEntity&#45;&gt;pyVHDLModel.VHDLModel.Branch -->
<g id="edge2" class="edge">
<title>pyVHDLModel.VHDLModel.ModelEntity&#45;&gt;pyVHDLModel.VHDLModel.Branch</title>
<path fill="none" stroke="#000000" stroke-width=".5" d="M264.104,-9.5C284.2821,-9.5 305.0024,-9.5 324.8672,-9.5"/>
<polygon fill="#000000" stroke="#000000" stroke-width=".5" points="324.8984,-11.2501 329.8983,-9.5 324.8983,-7.7501 324.8984,-11.2501"/>
</g>
</g>
</svg>
